<svg width="84" height="18" viewBox="0 0 84 18" fill="none" xmlns="http://www.w3.org/2000/svg">
<path d="M4.28 14.048H10.616V17H0.56V0.823999H10.52V3.776H4.28V7.448H9.848V10.376H4.28V14.048ZM18.3427 10.712H22.2307L22.0627 10.136C21.5987 8.568 21.2147 7.232 20.9107 6.128C20.6227 5.024 20.4467 4.312 20.3827 3.992L20.2867 3.512C20.1587 4.392 19.5667 6.6 18.5107 10.136L18.3427 10.712ZM24.1027 17L23.1187 13.688H17.4547L16.4707 17H12.6067L18.0067 0.823999H22.6627L28.0627 17H24.1027ZM39.521 1.544V5C38.225 4.248 36.881 3.872 35.489 3.872C34.865 3.872 34.385 4 34.049 4.256C33.729 4.512 33.569 4.84 33.569 5.24C33.569 5.64 33.769 6 34.169 6.32C34.569 6.624 35.169 6.952 35.969 7.304C36.465 7.528 36.873 7.728 37.193 7.904C37.529 8.064 37.905 8.296 38.321 8.6C38.753 8.888 39.089 9.2 39.329 9.536C39.585 9.856 39.801 10.256 39.977 10.736C40.153 11.216 40.241 11.736 40.241 12.296C40.241 13.752 39.705 14.936 38.633 15.848C37.561 16.744 36.137 17.192 34.361 17.192C32.457 17.192 30.905 16.856 29.705 16.184V12.464C31.161 13.52 32.713 14.048 34.361 14.048C34.921 14.048 35.385 13.904 35.753 13.616C36.121 13.312 36.305 12.92 36.305 12.44C36.305 12.28 36.281 12.128 36.233 11.984C36.185 11.84 36.097 11.704 35.969 11.576C35.841 11.448 35.713 11.344 35.585 11.264C35.473 11.168 35.297 11.064 35.057 10.952C34.833 10.824 34.641 10.72 34.481 10.64C34.321 10.56 34.081 10.448 33.761 10.304C33.457 10.16 33.209 10.048 33.017 9.968C31.977 9.488 31.137 8.896 30.497 8.192C29.873 7.488 29.561 6.552 29.561 5.384C29.561 3.992 30.073 2.872 31.097 2.024C32.121 1.16 33.537 0.727999 35.345 0.727999C36.961 0.727999 38.353 0.999999 39.521 1.544ZM46.2331 14.048H52.5691V17H42.5131V0.823999H52.4731V3.776H46.2331V7.448H51.8011V10.376H46.2331V14.048Z" fill="#F8F8F8"/>
<path d="M64.9038 10.76V0.823999H68.5998V10.736C68.5998 12.848 68.0078 14.464 66.8238 15.584C65.6398 16.688 64.0398 17.24 62.0238 17.24C60.0398 17.24 58.4478 16.688 57.2478 15.584C56.0478 14.48 55.4478 12.92 55.4478 10.904V0.823999H59.1438V10.88C59.1438 12.88 60.1038 13.88 62.0238 13.88C63.9438 13.88 64.9038 12.84 64.9038 10.76ZM75.2951 8.84H76.5191C78.4711 8.84 79.4471 7.952 79.4471 6.176C79.4471 4.576 78.5431 3.776 76.7351 3.776H75.2951V8.84ZM71.5991 0.823999H77.1671C78.9591 0.823999 80.4071 1.328 81.5111 2.336C82.6311 3.344 83.1911 4.624 83.1911 6.176C83.1911 7.952 82.6071 9.328 81.4391 10.304C80.2871 11.28 78.8631 11.768 77.1671 11.768H75.2951V17H71.5991V0.823999Z" fill="#053C86"/>
</svg>
