<svg width="100" height="20" viewBox="0 0 100 20" fill="none" xmlns="http://www.w3.org/2000/svg">
<g clip-path="url(#clip0_14_38)">
<path d="M9.99995 14.1666L5.10162 17.1583L6.43328 11.5749L2.07495 7.84159L7.79578 7.38325L9.99995 2.08325L12.2041 7.38325L17.9258 7.84159L13.5666 11.5749L14.8983 17.1583L9.99995 14.1666Z" fill="#053C86"/>
</g>
<g clip-path="url(#clip1_14_38)">
<path d="M30 14.1666L25.1016 17.1583L26.4333 11.5749L22.075 7.84159L27.7958 7.38325L30 2.08325L32.2041 7.38325L37.9258 7.84159L33.5666 11.5749L34.8983 17.1583L30 14.1666Z" fill="#053C86"/>
</g>
<g clip-path="url(#clip2_14_38)">
<path d="M50 14.1666L45.1016 17.1583L46.4333 11.5749L42.075 7.84159L47.7958 7.38325L50 2.08325L52.2041 7.38325L57.9258 7.84159L53.5666 11.5749L54.8983 17.1583L50 14.1666Z" fill="#053C86"/>
</g>
<g clip-path="url(#clip3_14_38)">
<path d="M70 14.1666L65.1016 17.1583L66.4333 11.5749L62.075 7.84159L67.7958 7.38325L70 2.08325L72.2041 7.38325L77.9258 7.84159L73.5666 11.5749L74.8983 17.1583L70 14.1666Z" fill="#053C86"/>
</g>
<g clip-path="url(#clip4_14_38)">
<path d="M90 14.1666L85.1016 17.1583L86.4333 11.5749L82.075 7.84159L87.7958 7.38325L90 2.08325L92.2041 7.38325L97.9258 7.84159L93.5666 11.5749L94.8983 17.1583L90 14.1666Z" fill="#053C86"/>
</g>
<defs>
<clipPath id="clip0_14_38">
<rect width="20" height="20" fill="white"/>
</clipPath>
<clipPath id="clip1_14_38">
<rect width="20" height="20" fill="white" transform="translate(20)"/>
</clipPath>
<clipPath id="clip2_14_38">
<rect width="20" height="20" fill="white" transform="translate(40)"/>
</clipPath>
<clipPath id="clip3_14_38">
<rect width="20" height="20" fill="white" transform="translate(60)"/>
</clipPath>
<clipPath id="clip4_14_38">
<rect width="20" height="20" fill="white" transform="translate(80)"/>
</clipPath>
</defs>
</svg>
